0
SECTION
2
HEADER
9
$INSUNITS
70

0
ENDSEC
0
SECTION
2
TABLES
0
TABLE
2
LTYPE
0
LTYPE
72
65
70
64
2
CONTINUOUS
3
______
73
0
40
0
0
ENDTAB
0
TABLE
2
LAYER
0
LAYER
2
white
70
0
62
7
6
CONTINUOUS
0
ENDTAB
0
ENDSEC
0
SECTION
2
ENTITIES
0
POLYLINE
8
white
66
1
70
1
0
VERTEX
8
white
10
122.5
20
-162
0
VERTEX
8
white
10
122.5
20
-62
0
VERTEX
8
white
10
302.5
20
-62
0
VERTEX
8
white
10
302.5
20
-162
0
SEQEND
0
POLYLINE
8
white
66
1
70
1
0
VERTEX
8
white
10
177.0646
20
-101.8
0
VERTEX
8
white
10
177.0646
20
-75
0
VERTEX
8
white
10
248.3646
20
-75
0
VERTEX
8
white
10
248.3646
20
-101.8
0
SEQEND
0
POLYLINE
8
white
66
1
70
1
0
VERTEX
8
white
10
165.5
20
-131
42
0.4142
0
VERTEX
8
white
10
162.5
20
-134
42
0.4142
0
VERTEX
8
white
10
165.5
20
-137
42
0.4142
0
VERTEX
8
white
10
168.5
20
-134
42
0.4142
0
SEQEND
0
POLYLINE
8
white
66
1
70
1
0
VERTEX
8
white
10
259.5
20
-131
42
0.4142
0
VERTEX
8
white
10
256.5
20
-134
42
0.4142
0
VERTEX
8
white
10
259.5
20
-137
42
0.4142
0
VERTEX
8
white
10
262.5
20
-134
42
0.4142
0
SEQEND
0
POLYLINE
8
white
66
1
70
1
0
VERTEX
8
white
10
267.4964
20
-86.4897
42
0.4142
0
VERTEX
8
white
10
265.4964
20
-88.4897
42
0.4142
0
VERTEX
8
white
10
267.4964
20
-90.4897
42
0.4142
0
VERTEX
8
white
10
269.4964
20
-88.4897
42
0.4142
0
SEQEND
0
POLYLINE
8
white
66
1
70
1
0
VERTEX
8
white
10
273.1355
20
-75.7835
42
0.4142
0
VERTEX
8
white
10
271.1355
20
-77.7835
42
0.4142
0
VERTEX
8
white
10
273.1355
20
-79.7835
42
0.4142
0
VERTEX
8
white
10
275.1355
20
-77.7835
42
0.4142
0
SEQEND
0
POLYLINE
8
white
66
1
70
1
0
VERTEX
8
white
10
267.4964
20
-97.4411
42
0.4142
0
VERTEX
8
white
10
265.4964
20
-99.4411
42
0.4142
0
VERTEX
8
white
10
267.4964
20
-101.4411
42
0.4142
0
VERTEX
8
white
10
269.4964
20
-99.4411
42
0.4142
0
SEQEND
0
POLYLINE
8
white
66
1
70
1
0
VERTEX
8
white
10
151.821
20
-81.1428
42
0.4142
0
VERTEX
8
white
10
149.821
20
-83.1428
42
0.4142
0
VERTEX
8
white
10
151.821
20
-85.1428
42
0.4142
0
VERTEX
8
white
10
153.821
20
-83.1428
42
0.4142
0
SEQEND
0
POLYLINE
8
white
66
1
70
1
0
VERTEX
8
white
10
151.821
20
-86.5368
42
0.4142
0
VERTEX
8
white
10
149.821
20
-88.5368
42
0.4142
0
VERTEX
8
white
10
151.821
20
-90.5368
42
0.4142
0
VERTEX
8
white
10
153.821
20
-88.5368
42
0.4142
0
SEQEND
0
POLYLINE
8
white
66
1
70
1
0
VERTEX
8
white
10
151.821
20
-91.9308
42
0.4142
0
VERTEX
8
white
10
149.821
20
-93.9308
42
0.4142
0
VERTEX
8
white
10
151.821
20
-95.9308
42
0.4142
0
VERTEX
8
white
10
153.821
20
-93.9308
42
0.4142
0
SEQEND
0
POLYLINE
8
white
66
1
70
1
0
VERTEX
8
white
10
151.821
20
-97.4882
42
0.4142
0
VERTEX
8
white
10
149.821
20
-99.4882
42
0.4142
0
VERTEX
8
white
10
151.821
20
-101.4882
42
0.4142
0
VERTEX
8
white
10
153.821
20
-99.4882
42
0.4142
0
SEQEND
0
POLYLINE
8
white
66
1
70
1
0
VERTEX
8
white
10
273.1661
20
-102.8657
42
0.4142
0
VERTEX
8
white
10
271.1661
20
-104.8657
42
0.4142
0
VERTEX
8
white
10
273.1661
20
-106.8657
42
0.4142
0
VERTEX
8
white
10
275.1661
20
-104.8657
42
0.4142
0
SEQEND
0
POLYLINE
8
white
66
1
70
1
0
VERTEX
8
white
10
151.8721
20
-75.8
42
0.4142
0
VERTEX
8
white
10
149.8721
20
-77.8
42
0.4142
0
VERTEX
8
white
10
151.8721
20
-79.8
42
0.4142
0
VERTEX
8
white
10
153.8721
20
-77.8
42
0.4142
0
SEQEND
0
POLYLINE
8
white
66
1
70
1
0
VERTEX
8
white
10
284.6078
20
-86.5203
42
0.4142
0
VERTEX
8
white
10
282.6078
20
-88.5203
42
0.4142
0
VERTEX
8
white
10
284.6078
20
-90.5203
42
0.4142
0
VERTEX
8
white
10
286.6078
20
-88.5203
42
0.4142
0
SEQEND
0
POLYLINE
8
white
66
1
70
1
0
VERTEX
8
white
10
284.6078
20
-97.4717
42
0.4142
0
VERTEX
8
white
10
282.6078
20
-99.4717
42
0.4142
0
VERTEX
8
white
10
284.6078
20
-101.4717
42
0.4142
0
VERTEX
8
white
10
286.6078
20
-99.4717
42
0.4142
0
SEQEND
0
POLYLINE
8
white
66
1
70
1
0
VERTEX
8
white
10
157.4263
20
-86.5623
42
0.4142
0
VERTEX
8
white
10
155.4263
20
-88.5623
42
0.4142
0
VERTEX
8
white
10
157.4263
20
-90.5623
42
0.4142
0
VERTEX
8
white
10
159.4263
20
-88.5623
42
0.4142
0
SEQEND
0
POLYLINE
8
white
66
1
70
1
0
VERTEX
8
white
10
157.4263
20
-97.5137
42
0.4142
0
VERTEX
8
white
10
155.4263
20
-99.5137
42
0.4142
0
VERTEX
8
white
10
157.4263
20
-101.5137
42
0.4142
0
VERTEX
8
white
10
159.4263
20
-99.5137
42
0.4142
0
SEQEND
0
POLYLINE
8
white
66
1
70
1
0
VERTEX
8
white
10
140.3148
20
-81.1378
42
0.4142
0
VERTEX
8
white
10
138.3148
20
-83.1378
42
0.4142
0
VERTEX
8
white
10
140.3148
20
-85.1378
42
0.4142
0
VERTEX
8
white
10
142.3148
20
-83.1378
42
0.4142
0
SEQEND
0
POLYLINE
8
white
66
1
70
1
0
VERTEX
8
white
10
140.3148
20
-91.9257
42
0.4142
0
VERTEX
8
white
10
138.3148
20
-93.9257
42
0.4142
0
VERTEX
8
white
10
140.3148
20
-95.9257
42
0.4142
0
VERTEX
8
white
10
142.3148
20
-93.9257
42
0.4142
0
SEQEND
0
POLYLINE
8
white
66
1
70
1
0
VERTEX
8
white
10
157.4263
20
-81.1684
42
0.4142
0
VERTEX
8
white
10
155.4263
20
-83.1684
42
0.4142
0
VERTEX
8
white
10
157.4263
20
-85.1684
42
0.4142
0
VERTEX
8
white
10
159.4263
20
-83.1684
42
0.4142
0
SEQEND
0
POLYLINE
8
white
66
1
70
1
0
VERTEX
8
white
10
157.4263
20
-91.9563
42
0.4142
0
VERTEX
8
white
10
155.4263
20
-93.9563
42
0.4142
0
VERTEX
8
white
10
157.4263
20
-95.9563
42
0.4142
0
VERTEX
8
white
10
159.4263
20
-93.9563
42
0.4142
0
SEQEND
0
POLYLINE
8
white
66
1
70
1
0
VERTEX
8
white
10
140.3148
20
-86.5318
42
0.4142
0
VERTEX
8
white
10
138.3148
20
-88.5318
42
0.4142
0
VERTEX
8
white
10
140.3148
20
-90.5318
42
0.4142
0
VERTEX
8
white
10
142.3148
20
-88.5318
42
0.4142
0
SEQEND
0
POLYLINE
8
white
66
1
70
1
0
VERTEX
8
white
10
151.9027
20
-102.8822
42
0.4142
0
VERTEX
8
white
10
149.9027
20
-104.8822
42
0.4142
0
VERTEX
8
white
10
151.9027
20
-106.8822
42
0.4142
0
VERTEX
8
white
10
153.9027
20
-104.8822
42
0.4142
0
SEQEND
0
POLYLINE
8
white
66
1
70
1
0
VERTEX
8
white
10
140.3148
20
-97.4832
42
0.4142
0
VERTEX
8
white
10
138.3148
20
-99.4832
42
0.4142
0
VERTEX
8
white
10
140.3148
20
-101.4832
42
0.4142
0
VERTEX
8
white
10
142.3148
20
-99.4832
42
0.4142
0
SEQEND
0
POLYLINE
8
white
66
1
70
1
0
VERTEX
8
white
10
267.4964
20
-81.0958
42
0.4142
0
VERTEX
8
white
10
265.4964
20
-83.0958
42
0.4142
0
VERTEX
8
white
10
267.4964
20
-85.0958
42
0.4142
0
VERTEX
8
white
10
269.4964
20
-83.0958
42
0.4142
0
SEQEND
0
POLYLINE
8
white
66
1
70
1
0
VERTEX
8
white
10
267.4964
20
-91.8837
42
0.4142
0
VERTEX
8
white
10
265.4964
20
-93.8837
42
0.4142
0
VERTEX
8
white
10
267.4964
20
-95.8837
42
0.4142
0
VERTEX
8
white
10
269.4964
20
-93.8837
42
0.4142
0
SEQEND
0
POLYLINE
8
white
66
1
70
1
0
VERTEX
8
white
10
145.9845
20
-102.9077
42
0.4142
0
VERTEX
8
white
10
143.9845
20
-104.9077
42
0.4142
0
VERTEX
8
white
10
145.9845
20
-106.9077
42
0.4142
0
VERTEX
8
white
10
147.9845
20
-104.9077
42
0.4142
0
SEQEND
0
POLYLINE
8
white
66
1
70
1
0
VERTEX
8
white
10
145.9539
20
-75.8255
42
0.4142
0
VERTEX
8
white
10
143.9539
20
-77.8255
42
0.4142
0
VERTEX
8
white
10
145.9539
20
-79.8255
42
0.4142
0
VERTEX
8
white
10
147.9539
20
-77.8255
42
0.4142
0
SEQEND
0
POLYLINE
8
white
66
1
70
1
0
VERTEX
8
white
10
279.0537
20
-75.758
42
0.4142
0
VERTEX
8
white
10
277.0537
20
-77.758
42
0.4142
0
VERTEX
8
white
10
279.0537
20
-79.758
42
0.4142
0
VERTEX
8
white
10
281.0537
20
-77.758
42
0.4142
0
SEQEND
0
POLYLINE
8
white
66
1
70
1
0
VERTEX
8
white
10
145.9028
20
-86.5623
42
0.4142
0
VERTEX
8
white
10
143.9028
20
-88.5623
42
0.4142
0
VERTEX
8
white
10
145.9028
20
-90.5623
42
0.4142
0
VERTEX
8
white
10
147.9028
20
-88.5623
42
0.4142
0
SEQEND
0
POLYLINE
8
white
66
1
70
1
0
VERTEX
8
white
10
145.9028
20
-97.5137
42
0.4142
0
VERTEX
8
white
10
143.9028
20
-99.5137
42
0.4142
0
VERTEX
8
white
10
145.9028
20
-101.5137
42
0.4142
0
VERTEX
8
white
10
147.9028
20
-99.5137
42
0.4142
0
SEQEND
0
POLYLINE
8
white
66
1
70
1
0
VERTEX
8
white
10
279.0843
20
-102.8402
42
0.4142
0
VERTEX
8
white
10
277.0843
20
-104.8402
42
0.4142
0
VERTEX
8
white
10
279.0843
20
-106.8402
42
0.4142
0
VERTEX
8
white
10
281.0843
20
-104.8402
42
0.4142
0
SEQEND
0
POLYLINE
8
white
66
1
70
1
0
VERTEX
8
white
10
273.0844
20
-86.5203
42
0.4142
0
VERTEX
8
white
10
271.0844
20
-88.5203
42
0.4142
0
VERTEX
8
white
10
273.0844
20
-90.5203
42
0.4142
0
VERTEX
8
white
10
275.0844
20
-88.5203
42
0.4142
0
SEQEND
0
POLYLINE
8
white
66
1
70
1
0
VERTEX
8
white
10
273.0844
20
-97.4717
42
0.4142
0
VERTEX
8
white
10
271.0844
20
-99.4717
42
0.4142
0
VERTEX
8
white
10
273.0844
20
-101.4717
42
0.4142
0
VERTEX
8
white
10
275.0844
20
-99.4717
42
0.4142
0
SEQEND
0
POLYLINE
8
white
66
1
70
1
0
VERTEX
8
white
10
279.0025
20
-81.1008
42
0.4142
0
VERTEX
8
white
10
277.0025
20
-83.1008
42
0.4142
0
VERTEX
8
white
10
279.0025
20
-85.1008
42
0.4142
0
VERTEX
8
white
10
281.0025
20
-83.1008
42
0.4142
0
SEQEND
0
POLYLINE
8
white
66
1
70
1
0
VERTEX
8
white
10
279.0025
20
-91.8888
42
0.4142
0
VERTEX
8
white
10
277.0025
20
-93.8888
42
0.4142
0
VERTEX
8
white
10
279.0025
20
-95.8888
42
0.4142
0
VERTEX
8
white
10
281.0025
20
-93.8888
42
0.4142
0
SEQEND
0
POLYLINE
8
white
66
1
70
1
0
VERTEX
8
white
10
145.9028
20
-81.1684
42
0.4142
0
VERTEX
8
white
10
143.9028
20
-83.1684
42
0.4142
0
VERTEX
8
white
10
145.9028
20
-85.1684
42
0.4142
0
VERTEX
8
white
10
147.9028
20
-83.1684
42
0.4142
0
SEQEND
0
POLYLINE
8
white
66
1
70
1
0
VERTEX
8
white
10
145.9028
20
-91.9563
42
0.4142
0
VERTEX
8
white
10
143.9028
20
-93.9563
42
0.4142
0
VERTEX
8
white
10
145.9028
20
-95.9563
42
0.4142
0
VERTEX
8
white
10
147.9028
20
-93.9563
42
0.4142
0
SEQEND
0
POLYLINE
8
white
66
1
70
1
0
VERTEX
8
white
10
284.6078
20
-81.1263
42
0.4142
0
VERTEX
8
white
10
282.6078
20
-83.1263
42
0.4142
0
VERTEX
8
white
10
284.6078
20
-85.1263
42
0.4142
0
VERTEX
8
white
10
286.6078
20
-83.1263
42
0.4142
0
SEQEND
0
POLYLINE
8
white
66
1
70
1
0
VERTEX
8
white
10
284.6078
20
-91.9143
42
0.4142
0
VERTEX
8
white
10
282.6078
20
-93.9143
42
0.4142
0
VERTEX
8
white
10
284.6078
20
-95.9143
42
0.4142
0
VERTEX
8
white
10
286.6078
20
-93.9143
42
0.4142
0
SEQEND
0
POLYLINE
8
white
66
1
70
1
0
VERTEX
8
white
10
273.0844
20
-81.1263
42
0.4142
0
VERTEX
8
white
10
271.0844
20
-83.1263
42
0.4142
0
VERTEX
8
white
10
273.0844
20
-85.1263
42
0.4142
0
VERTEX
8
white
10
275.0844
20
-83.1263
42
0.4142
0
SEQEND
0
POLYLINE
8
white
66
1
70
1
0
VERTEX
8
white
10
273.0844
20
-91.9143
42
0.4142
0
VERTEX
8
white
10
271.0844
20
-93.9143
42
0.4142
0
VERTEX
8
white
10
273.0844
20
-95.9143
42
0.4142
0
VERTEX
8
white
10
275.0844
20
-93.9143
42
0.4142
0
SEQEND
0
POLYLINE
8
white
66
1
70
1
0
VERTEX
8
white
10
279.0025
20
-86.4948
42
0.4142
0
VERTEX
8
white
10
277.0025
20
-88.4948
42
0.4142
0
VERTEX
8
white
10
279.0025
20
-90.4948
42
0.4142
0
VERTEX
8
white
10
281.0025
20
-88.4948
42
0.4142
0
SEQEND
0
POLYLINE
8
white
66
1
70
1
0
VERTEX
8
white
10
279.0025
20
-97.4462
42
0.4142
0
VERTEX
8
white
10
277.0025
20
-99.4462
42
0.4142
0
VERTEX
8
white
10
279.0025
20
-101.4462
42
0.4142
0
VERTEX
8
white
10
281.0025
20
-99.4462
42
0.4142
0
SEQEND
0
ENDSEC
0
EOF