0
SECTION
2
HEADER
9
$INSUNITS
70

0
ENDSEC
0
SECTION
2
TABLES
0
TABLE
2
LTYPE
0
LTYPE
72
65
70
64
2
CONTINUOUS
3
______
73
0
40
0
0
ENDTAB
0
TABLE
2
LAYER
0
LAYER
2
white
70
0
62
7
6
CONTINUOUS
0
ENDTAB
0
ENDSEC
0
SECTION
2
ENTITIES
0
POLYLINE
8
white
66
1
70
1
0
VERTEX
8
white
10
365.0001
20
-23
0
VERTEX
8
white
10
365.0001
20
-123
0
VERTEX
8
white
10
185
20
-123
0
VERTEX
8
white
10
185
20
-223
0
VERTEX
8
white
10
365.0001
20
-223
0
SEQEND
0
POLYLINE
8
white
66
1
70
1
0
VERTEX
8
white
10
365.0001
20
-123
0
VERTEX
8
white
10
365.0001
20
-223
0
VERTEX
8
white
10
465.0001
20
-223
0
VERTEX
8
white
10
465.0001
20
-123
0
VERTEX
8
white
10
465.0001
20
-23
0
VERTEX
8
white
10
365.0001
20
-23
0
SEQEND
0
POLYLINE
8
white
66
1
70
1
0
VERTEX
8
white
10
365.0001
20
-123
0
VERTEX
8
white
10
465.0001
20
-123
0
VERTEX
8
white
10
365.0001
20
-123
0
VERTEX
8
white
10
365.0001
20
-23
0
VERTEX
8
white
10
465.0001
20
-23
0
VERTEX
8
white
10
465.0001
20
-123
0
SEQEND
0
POLYLINE
8
white
66
1
70
1
0
VERTEX
8
white
10
185
20
-123
0
VERTEX
8
white
10
185
20
-23
0
VERTEX
8
white
10
365.0001
20
-23
0
VERTEX
8
white
10
365.0001
20
-123
0
SEQEND
0
POLYLINE
8
white
66
1
70
1
0
VERTEX
8
white
10
5
20
-123
0
VERTEX
8
white
10
5
20
-23
0
VERTEX
8
white
10
185
20
-23
0
VERTEX
8
white
10
185
20
-123
0
SEQEND
0
POLYLINE
8
white
66
1
70
1
0
VERTEX
8
white
10
185
20
-123
0
VERTEX
8
white
10
5
20
-123
0
VERTEX
8
white
10
5
20
-223
0
VERTEX
8
white
10
185
20
-223
0
SEQEND
0
POLYLINE
8
white
66
1
70
1
0
VERTEX
8
white
10
367.6459
20
-125.6459
0
VERTEX
8
white
10
367.6459
20
-25.6458
0
VERTEX
8
white
10
467.6459
20
-25.6458
0
VERTEX
8
white
10
467.6459
20
-125.6459
0
SEQEND
0
POLYLINE
8
white
66
1
70
1
0
VERTEX
8
white
10
367.6459
20
-25.6458
0
VERTEX
8
white
10
367.6459
20
-125.6459
0
VERTEX
8
white
10
467.6459
20
-125.6459
0
VERTEX
8
white
10
467.6459
20
-25.6458
0
SEQEND
0
POLYLINE
8
white
66
1
70
1
0
VERTEX
8
white
10
467.6459
20
-25.6458
0
VERTEX
8
white
10
367.6459
20
-25.6458
0
VERTEX
8
white
10
367.6459
20
-125.6459
0
VERTEX
8
white
10
467.6459
20
-125.6459
0
SEQEND
0
POLYLINE
8
white
66
1
70
1
0
VERTEX
8
white
10
467.6459
20
-125.6459
0
VERTEX
8
white
10
467.6459
20
-25.6458
0
VERTEX
8
white
10
367.6459
20
-25.6458
0
VERTEX
8
white
10
367.6459
20
-125.6459
0
SEQEND
0
POLYLINE
8
white
66
1
70
1
0
VERTEX
8
white
10
59.8217
20
-62.5
0
VERTEX
8
white
10
59.8217
20
-48
0
VERTEX
8
white
10
130.5217
20
-48
0
VERTEX
8
white
10
130.5217
20
-62.5
0
SEQEND
0
POLYLINE
8
white
66
1
70
1
0
VERTEX
8
white
10
142
20
-90
42
0.4142
0
VERTEX
8
white
10
139
20
-93
42
0.4142
0
VERTEX
8
white
10
142
20
-96
42
0.4142
0
VERTEX
8
white
10
145
20
-93
42
0.4142
0
SEQEND
0
POLYLINE
8
white
66
1
70
1
0
VERTEX
8
white
10
54
20
-90
42
0.4142
0
VERTEX
8
white
10
51
20
-93
42
0.4142
0
VERTEX
8
white
10
54
20
-96
42
0.4142
0
VERTEX
8
white
10
57
20
-93
42
0.4142
0
SEQEND
0
ENDSEC
0
EOF